name D:\school\WTK\thesis\model\3dpredictsim\Results\batch_windlass\Pog_s1_tmt_aCst_d00_k800_WL30_ig24_pas.mot
datacolumns 128
datarows 4
range 0.55950077 0.59307081
endheader
time	pelvis_tilt	pelvis_list	pelvis_rotation	pelvis_tx	pelvis_ty	pelvis_tz	hip_flexion_l	hip_adduction_l	hip_rotation_l	hip_flexion_r	hip_adduction_r	hip_rotation_r	knee_angle_l	knee_angle_r	ankle_angle_l	ankle_angle_r	subtalar_angle_l	subtalar_angle_r	tmt_angle_l	tmt_angle_r	mtp_angle_l	mtp_angle_r	lumbar_extension	lumbar_bending	lumbar_rotation	arm_flex_l	arm_add_l	arm_rot_l	arm_flex_r	arm_add_r	arm_rot_r	elbow_flex_l	elbow_flex_r	pro_sup_l	pro_sup_r	glut_med1_l/activation	glut_med2_l/activation	glut_med3_l/activation	glut_min1_l/activation	glut_min2_l/activation	glut_min3_l/activation	semimem_l/activation	semiten_l/activation	bifemlh_l/activation	bifemsh_l/activation	sar_l/activation	add_long_l/activation	add_brev_l/activation	add_mag1_l/activation	add_mag2_l/activation	add_mag3_l/activation	tfl_l/activation	pect_l/activation	grac_l/activation	glut_max1_l/activation	glut_max2_l/activation	glut_max3_l/activation	iliacus_l/activation	psoas_l/activation	quad_fem_l/activation	gem_l/activation	peri_l/activation	rect_fem_l/activation	vas_med_l/activation	vas_int_l/activation	vas_lat_l/activation	med_gas_l/activation	lat_gas_l/activation	soleus_l/activation	tib_post_l/activation	flex_dig_l/activation	flex_hal_l/activation	tib_ant_l/activation	per_brev_l/activation	per_long_l/activation	per_tert_l/activation	ext_dig_l/activation	ext_hal_l/activation	ercspn_l/activation	intobl_l/activation	extobl_l/activation	glut_med1_r/activation	glut_med2_r/activation	glut_med3_r/activation	glut_min1_r/activation	glut_min2_r/activation	glut_min3_r/activation	semimem_r/activation	semiten_r/activation	bifemlh_r/activation	bifemsh_r/activation	sar_r/activation	add_long_r/activation	add_brev_r/activation	add_mag1_r/activation	add_mag2_r/activation	add_mag3_r/activation	tfl_r/activation	pect_r/activation	grac_r/activation	glut_max1_r/activation	glut_max2_r/activation	glut_max3_r/activation	iliacus_r/activation	psoas_r/activation	quad_fem_r/activation	gem_r/activation	peri_r/activation	rect_fem_r/activation	vas_med_r/activation	vas_int_r/activation	vas_lat_r/activation	med_gas_r/activation	lat_gas_r/activation	soleus_r/activation	tib_post_r/activation	flex_dig_r/activation	flex_hal_r/activation	tib_ant_r/activation	per_brev_r/activation	per_long_r/activation	per_tert_r/activation	ext_dig_r/activation	ext_hal_r/activation	ercspn_r/activation	intobl_r/activation	extobl_r/activation	
          0.55950077	         -2.92730809	          2.29653525	         -6.40523874	          0.69937596	          0.85848547	          0.00263946	         31.97136671	          2.82759337	         -2.56190509	        -17.38096669	         -2.28151678	          7.81028959	        -16.66777467	        -10.04214857	          6.53987389	          1.40765078	         -1.21496706	         13.54178451	         -0.36115562	         -8.23752136	          1.08500242	         27.88074281	         -1.39239285	         -0.63832093	          2.25433824	        -12.65043440	        -13.63884022	          6.69865640	          7.85313496	        -13.46646452	         17.31627507	         15.87732323	         41.09982262	         86.51662706	         86.51662706	          0.09031452	          0.05000142	          0.05932492	          0.05000040	          0.05000053	          0.05000113	          0.05000107	          0.05932509	          0.19948942	          0.05000143	          0.05000056	          0.08822519	          0.14087490	          0.16685200	          0.17541077	          0.13096509	          0.05000235	          0.05000583	          0.05932523	          0.05932520	          0.13268349	          0.07143937	          0.06121372	          0.06240362	          0.25819151	          0.05000034	          0.05000126	          0.05498591	          0.11370889	          0.12321684	          0.09465654	          0.05000018	          0.05000033	          0.06112523	          0.05517473	          0.05932797	          0.05933018	          0.51868298	          0.41076554	          0.23089429	          0.07536179	          0.58595447	          0.25186451	          0.05743714	          0.09196467	          0.11537484	          0.28057449	          0.09674617	          0.05000009	          0.31892197	          0.20490936	          0.09891495	          0.05000626	          0.05000041	          0.05000029	          0.07238749	          0.08860726	          0.12719450	          0.05108522	          0.05000144	          0.05000312	          0.05000379	          0.27644593	          0.05575823	          0.05000054	          0.05000258	          0.05000177	          0.05000143	          0.31074389	          0.52218591	          0.05000015	          0.05000072	          0.05000029	          0.25183970	          0.09092094	          0.05000358	          0.11922236	          0.26809308	          0.34762362	          0.22318777	          0.20112949	          0.20157354	          0.26929222	          0.05000001	          0.14346298	          0.19232093	          0.05000015	          0.05000004	          0.05000011	          0.05000000	          0.05000012	          0.05000005	
          0.57069078	         -2.91898029	          2.37222177	         -6.64191863	          0.71677799	          0.85762774	          0.00240820	         31.25636011	          3.20810319	         -2.34580111	        -17.16366880	         -2.56600161	          7.58004455	        -16.11955737	        -12.07409732	          6.14434233	          0.22047565	         -1.69662891	         14.46080810	         -0.45170274	         -8.79808876	          1.34614698	         28.74879909	         -1.15827072	         -0.87697275	          2.35046628	        -13.87409321	        -13.61668377	          6.56007182	          7.57106615	        -13.49387825	         17.52682536	         15.87057305	         42.27289833	         86.51662706	         86.51662706	          0.07936953	          0.05932451	          0.05000014	          0.05932509	          0.05932503	          0.05002367	          0.05000009	          0.05000016	          0.19892360	          0.05000008	          0.05000094	          0.09909243	          0.25245735	          0.14062582	          0.14783945	          0.14151644	          0.05000017	          0.08305386	          0.05000062	          0.05000034	          0.18906140	          0.18930833	          0.05932487	          0.05259508	          0.21760797	          0.22132799	          0.18971707	          0.07038924	          0.24231181	          0.23344115	          0.20252244	          0.05000004	          0.05000008	          0.05254808	          0.05000007	          0.05000263	          0.05000452	          0.68731073	          0.35320435	          0.19460133	          0.47039071	          0.65861630	          0.41322111	          0.05003315	          0.07750920	          0.09723963	          0.23647243	          0.08153914	          0.05000011	          0.26879228	          0.17270072	          0.08336707	          0.05000110	          0.05000013	          0.05000009	          0.06100927	          0.07467984	          0.18170339	          0.22714449	          0.06186079	          0.05000197	          0.05000026	          0.23299296	          0.11048448	          0.05002613	          0.05000133	          0.05000076	          0.05000050	          0.26189965	          0.47719778	          0.05000039	          0.05000091	          0.05000033	          0.21225429	          0.07663955	          0.15495019	          0.11383696	          0.22595282	          0.29298235	          0.18810596	          0.16951496	          0.16988931	          0.22696356	          0.07292362	          0.12091281	          0.16209101	          0.05000022	          0.13217126	          0.05000048	          0.05612167	          0.05000014	          0.05000007	
          0.58188080	         -2.90548571	          2.44510207	         -6.84688014	          0.73441497	          0.85651445	          0.00218366	         30.40776255	          3.56666044	         -2.05837006	        -16.86524564	         -2.82688989	          7.34181657	        -16.16540810	        -14.28713113	          5.61132980	         -0.98416511	         -2.19018155	         15.29866424	         -0.59596265	         -9.14614791	          1.64906587	         28.95565520	         -0.90824442	         -1.11946345	          2.43498531	        -15.06350567	        -13.60066113	          6.49922707	          7.20792954	        -13.52917434	         17.65785668	         15.81410068	         43.41599942	         86.51662706	         86.51662706	          0.20258259	          0.05000010	          0.18852167	          0.05000012	          0.05000012	          0.05000014	          0.05000075	          0.05000056	          0.16772564	          0.05000010	          0.05000047	          0.08351673	          0.21277520	          0.34748180	          0.29329902	          0.17459502	          0.05000035	          0.07002015	          0.13554945	          0.16402389	          0.18424629	          0.15955233	          0.05000013	          0.05000016	          0.38028413	          0.18653856	          0.15989644	          0.05932514	          0.25495430	          0.25490037	          0.21574120	          0.05932452	          0.05932447	          0.05932482	          0.05000007	          0.05932458	          0.05006938	          0.59624557	          0.43560512	          0.21027292	          0.57156675	          0.64743136	          0.34826902	          0.05000001	          0.06532591	          0.08195501	          0.19930252	          0.06872245	          0.05932398	          0.22654220	          0.14555479	          0.07026312	          0.06270733	          0.05000066	          0.05932461	          0.05141954	          0.06294142	          0.21457181	          0.36000356	          0.21038541	          0.11068998	          0.13950729	          0.19637009	          0.09311827	          0.05000096	          0.05011127	          0.05932255	          0.05932677	          0.22073294	          0.42165052	          0.05932545	          0.05932569	          0.05000188	          0.17889108	          0.09744632	          0.13059589	          0.09626050	          0.19043639	          0.24692988	          0.15853850	          0.14286977	          0.14318535	          0.19128835	          0.19741373	          0.12448142	          0.17604346	          0.05000110	          0.23825295	          0.15451740	          0.07650357	          0.05932505	          0.05000029	
          0.59307081	         -2.88833384	          2.52178398	         -7.01665848	          0.75208173	          0.85515231	          0.00196730	         29.40821803	          3.88968059	         -1.73731987	        -16.44259894	         -3.06092865	          7.10895682	        -16.48163641	        -16.75507176	          5.40230113	         -2.08815420	         -2.72557645	         16.02812721	         -1.28828294	         -9.06026676	          1.76980022	         28.01113010	         -0.66024936	         -1.37096438	          2.50581285	        -16.17216714	        -13.59780065	          6.55659120	          6.79779924	        -13.56743105	         17.71882617	         15.67602447	         44.51312956	         86.51662706	         86.51662706	          0.34161490	          0.33698897	          0.43928965	          0.33259705	          0.19662103	          0.28506451	          0.08935396	          0.12275535	          0.14309521	          0.07038499	          0.05000065	          0.07038920	          0.17933014	          0.29286296	          0.24719711	          0.17583990	          0.05000021	          0.05901654	          0.11424518	          0.27120177	          0.22646116	          0.16507518	          0.05000024	          0.05000018	          0.32050920	          0.15721760	          0.30244665	          0.05000014	          0.21514720	          0.25556233	          0.19415138	          0.05000002	          0.05000005	          0.05000001	          0.05000000	          0.05000029	          0.05000022	          0.73034788	          0.36713450	          0.17722115	          0.75462012	          0.71562918	          0.50320233	          0.06561948	          0.07595603	          0.06907290	          0.22927660	          0.05792038	          0.05000010	          0.19876062	          0.12267591	          0.05921912	          0.09081466	          0.05000044	          0.05000033	          0.05000127	          0.05933129	          0.18084442	          0.30341643	          0.17731602	          0.09329135	          0.11757891	          0.25087067	          0.07848174	          0.05005730	          0.05000138	          0.05000087	          0.05000170	          0.18603709	          0.40172113	          0.05000045	          0.05000105	          0.05000026	          0.15077207	          0.08212923	          0.11006817	          0.08112979	          0.16050262	          0.20811618	          0.13361860	          0.12055470	          0.12067892	          0.16122094	          0.21574634	          0.13389653	          0.15148974	          0.12881379	          0.25756861	          0.13022972	          0.10242704	          0.05000004	          0.05000005	
